# 3ds Max Wavefront OBJ Exporter v0.97b - (c)2007 guruware
# File Created: 29.10.2016 20:57:42

mtllib old toy box.mtl

#
# object Box001
#

v  50.0000 39.6253 -25.0000
v  50.0000 39.6253 25.0000
v  -50.0000 39.6253 25.0000
v  -50.0000 39.6253 -25.0000
v  49.7000 41.2253 -24.7000
v  -49.7000 41.2253 -24.7000
v  -49.7000 41.2253 24.7000
v  49.7000 41.2253 24.7000
v  50.0000 40.9253 25.0000
v  -50.0000 40.9253 25.0000
v  50.0000 40.9253 -25.0000
v  -50.0000 40.9253 -25.0000
v  -49.9250 41.1503 24.9250
v  49.9250 41.1503 24.9250
v  49.9250 41.1503 -24.9250
v  -49.9250 41.1503 -24.9250
v  49.0000 39.6253 24.0000
v  -49.0000 39.6253 24.0000
v  -49.0000 9.6253 24.0000
v  49.0000 9.6253 24.0000
v  49.0000 39.6253 -24.0000
v  49.0000 9.6253 -24.0000
v  -49.0000 39.6253 -24.0000
v  -49.0000 9.6253 -24.0000
v  -49.9192 8.0253 -24.9192
v  -49.9192 8.0253 24.9192
v  -49.9192 9.6253 24.9192
v  -49.9192 9.6253 -24.9192
v  49.9192 8.0253 -24.9192
v  49.9192 9.6253 -24.9192
v  49.9192 8.0253 24.9192
v  49.9192 9.6253 24.9192
v  -49.0000 8.0253 -24.0000
v  -49.0000 8.0253 24.0000
v  49.0000 8.0253 24.0000
v  49.0000 8.0253 -24.0000
v  -49.0000 0.0253 11.6000
v  -49.0000 8.0253 11.6000
v  -49.0000 8.0253 8.1200
v  -49.0000 4.8454 8.1200
v  -24.1000 0.0253 -24.0000
v  -24.1000 8.0253 -24.0000
v  -19.2800 8.0253 -24.0000
v  -19.2800 4.8454 -24.0000
v  49.0000 0.0253 -11.6000
v  49.0000 8.0253 -11.6000
v  49.0000 8.0253 -8.1200
v  49.0000 4.8454 -8.1200
v  24.1000 0.0253 24.0000
v  24.1000 8.0253 24.0000
v  19.2800 8.0253 24.0000
v  19.2800 4.8454 24.0000
v  -47.4000 0.0253 11.6000
v  -47.4000 4.8454 8.1200
v  -24.1000 0.0253 -22.4000
v  -19.2800 4.8454 -22.4000
v  47.4000 0.0253 -11.6000
v  47.4000 4.8454 -8.1200
v  24.1000 0.0253 22.4000
v  19.2800 4.8454 22.4000
v  -47.4000 8.0253 -11.6000
v  -49.0000 8.0253 -11.6000
v  -49.0000 8.0253 -8.1200
v  -47.4000 8.0253 -8.1200
v  -24.1000 8.0253 22.4000
v  -24.1000 8.0253 24.0000
v  -19.2800 8.0253 24.0000
v  -19.2800 8.0253 22.4000
v  47.4000 8.0253 11.6000
v  49.0000 8.0253 11.6000
v  49.0000 8.0253 8.1200
v  47.4000 8.0253 8.1200
v  24.1000 8.0253 -22.4000
v  24.1000 8.0253 -24.0000
v  19.2800 8.0253 -24.0000
v  19.2800 8.0253 -22.4000
v  -47.4000 8.0253 11.6000
v  -47.4000 8.0253 8.1200
v  -24.1000 8.0253 -22.4000
v  -19.2800 8.0253 -22.4000
v  47.4000 8.0253 -11.6000
v  47.4000 8.0253 -8.1200
v  24.1000 8.0253 22.4000
v  19.2800 8.0253 22.4000
v  24.1000 0.0253 -24.0000
v  49.0000 0.0253 -24.0000
v  -0.0000 4.8454 -24.0000
v  -0.0000 8.0253 -24.0000
v  19.2800 4.8454 -24.0000
v  -49.0000 0.0253 -24.0000
v  -24.1000 0.0253 24.0000
v  -49.0000 0.0253 24.0000
v  0.0000 4.8454 24.0000
v  0.0000 8.0253 24.0000
v  -19.2800 4.8454 24.0000
v  49.0000 0.0253 24.0000
v  47.4000 0.0253 -22.4000
v  24.1000 0.0253 -22.4000
v  -0.0000 4.8454 -22.4000
v  19.2800 4.8454 -22.4000
v  -47.4000 0.0253 -22.4000
v  -47.4000 0.0253 22.4000
v  -24.1000 0.0253 22.4000
v  0.0000 4.8454 22.4000
v  -19.2800 4.8454 22.4000
v  47.4000 0.0253 22.4000
v  47.4000 8.0253 22.4000
v  0.0000 8.0253 22.4000
v  -47.4000 8.0253 22.4000
v  -47.4000 8.0253 -22.4000
v  -0.0000 8.0253 -22.4000
v  47.4000 8.0253 -22.4000
v  -49.0000 0.0253 -11.6000
v  -49.0000 4.8454 0.0000
v  -49.0000 8.0253 0.0000
v  -49.0000 4.8454 -8.1200
v  49.0000 0.0253 11.6000
v  49.0000 4.8454 -0.0000
v  49.0000 8.0253 -0.0000
v  49.0000 4.8454 8.1200
v  -47.4000 0.0253 -11.6000
v  -47.4000 4.8454 0.0000
v  -47.4000 4.8454 -8.1200
v  47.4000 0.0253 11.6000
v  47.4000 4.8454 -0.0000
v  47.4000 4.8454 8.1200
v  -47.4000 8.0253 0.0000
v  47.4000 8.0253 -0.0000
# 128 vertices

vn 0.0000 -1.0000 -0.0000
vn 0.1212 0.9852 -0.1212
vn -0.1212 0.9852 -0.1212
vn -0.1212 0.9852 0.1212
vn 0.1212 0.9852 0.1212
vn 0.0000 0.1429 0.9897
vn 0.0000 0.0000 1.0000
vn 0.9897 0.1429 -0.0000
vn 1.0000 0.0000 -0.0000
vn -0.0000 0.1429 -0.9897
vn -0.0000 0.0000 -1.0000
vn -0.9897 0.1429 0.0000
vn -1.0000 0.0000 0.0000
vn -0.1622 0.9733 0.1622
vn 0.1622 0.9733 0.1622
vn 0.1622 0.9733 -0.1622
vn -0.1622 0.9733 -0.1622
vn 0.0000 0.3162 0.9487
vn 0.9487 0.3162 -0.0000
vn -0.0000 0.3162 -0.9487
vn -0.9487 0.3162 0.0000
vn 0.0000 1.0000 -0.0000
vn -0.0000 -0.5854 -0.8108
vn 0.7071 -0.7071 -0.0000
vn 0.0000 -0.5854 0.8108
vn -0.7071 -0.7071 0.0000
# 26 vertex normals

vt 0.4925 0.2775 -0.3550
vt 0.4925 0.5228 0.3550
vt 0.0020 0.5228 0.3550
vt 0.0020 0.2775 -0.3550
vt 0.4983 0.2530 -0.3826
vt 0.0107 0.2530 -0.3826
vt 0.0107 0.0107 0.3826
vt 0.4983 0.0107 0.3826
vt 0.4997 0.0084 -0.3826
vt 0.0092 0.0084 -0.3826
vt 0.0092 0.0020 -0.3826
vt 0.4997 0.0020 -0.3826
vt 0.5006 0.2545 -0.3826
vt 0.5006 0.0092 -0.3826
vt 0.5070 0.0092 -0.3826
vt 0.5070 0.2545 -0.3826
vt 0.0092 0.2553 -0.3826
vt 0.4997 0.2553 -0.3826
vt 0.4997 0.2617 -0.3826
vt 0.0092 0.2617 -0.3826
vt 0.0084 0.0092 -0.3826
vt 0.0084 0.2545 -0.3826
vt 0.0020 0.2545 -0.3826
vt 0.0020 0.0092 -0.3826
vt 0.0096 0.0095 -0.3826
vt 0.4994 0.0095 -0.3826
vt 0.4994 0.0096 -0.3826
vt 0.4994 0.2541 -0.3826
vt 0.4994 0.2542 -0.3826
vt 0.0096 0.2542 -0.3826
vt 0.0095 0.2541 -0.3826
vt 0.0095 0.0096 -0.3826
vt 0.9935 0.4415 0.1170
vt 0.5128 0.4415 0.1170
vt 0.5128 0.2944 0.1170
vt 0.9935 0.2944 0.1170
vt 0.0020 0.7184 0.2563
vt 0.2374 0.7184 0.2563
vt 0.2374 0.8655 -0.2563
vt 0.0020 0.8655 -0.2563
vt 0.0065 0.5386 0.1369
vt 0.4872 0.5386 0.1369
vt 0.4872 0.6857 0.1369
vt 0.0065 0.6857 0.1369
vt 0.7627 0.1660 0.1369
vt 0.5273 0.1660 0.1369
vt 0.5273 0.0189 0.1369
vt 0.7627 0.0189 0.1369
vt 0.5228 0.0065 -0.1369
vt 0.7672 0.0065 -0.1369
vt 0.7672 0.0144 0.1369
vt 0.5228 0.0144 0.1369
vt 0.4917 0.6981 -0.1369
vt 0.0020 0.6981 0.1369
vt 0.0020 0.6902 -0.0971
vt 0.4917 0.6902 0.1369
vt 0.7672 0.2492 0.1170
vt 0.5228 0.2492 0.1170
vt 0.5228 0.2414 -0.1170
vt 0.7672 0.2414 -0.1170
vt 0.5083 0.2820 0.1170
vt 0.9980 0.2820 0.1170
vt 0.9980 0.2899 -0.1170
vt 0.5083 0.2899 -0.1170
vt 0.5273 0.2369 0.1170
vt 0.7627 0.2369 0.1170
vt 0.5273 0.0020 0.1369
vt 0.7627 0.0020 0.1369
vt 0.5128 0.2775 0.1170
vt 0.9935 0.2775 0.1170
vt 0.7627 0.2537 0.1170
vt 0.5273 0.2537 0.1170
vt 0.4872 0.7026 0.1369
vt 0.0065 0.7026 0.1369
vt 0.6974 0.1818 0.1624
vt 0.6974 0.2211 0.1624
vt 0.6803 0.2211 0.1624
vt 0.6803 0.2055 0.1624
vt 0.6296 0.5778 0.3249
vt 0.6297 0.5386 0.3249
vt 0.6533 0.5386 0.3249
vt 0.6533 0.5542 0.3249
vt 0.1766 0.8813 0.1624
vt 0.1766 0.9206 0.1624
vt 0.1595 0.9206 0.1624
vt 0.1595 0.9050 0.1624
vt 0.8669 0.4573 0.3249
vt 0.8669 0.4966 0.3249
vt 0.8432 0.4966 0.3249
vt 0.8432 0.4810 0.3249
vt 0.6876 0.7971 0.1791
vt 0.6876 0.8049 0.1791
vt 0.6584 0.8049 0.1791
vt 0.6584 0.7971 0.1791
vt 0.3755 0.8364 0.3381
vt 0.3755 0.8286 0.3381
vt 0.4089 0.8286 0.3381
vt 0.4089 0.8364 0.3381
vt 0.4521 0.8523 0.1791
vt 0.4521 0.8601 0.1791
vt 0.4229 0.8601 0.1791
vt 0.4229 0.8523 0.1791
vt 0.8670 0.7734 0.3381
vt 0.8670 0.7813 0.3381
vt 0.8335 0.7813 0.3381
vt 0.8335 0.7734 0.3381
vt 0.0628 0.9442 0.0940
vt 0.0628 0.9364 0.0940
vt 0.0799 0.9364 0.0940
vt 0.0799 0.9442 0.0940
vt 0.6297 0.6566 0.1881
vt 0.6297 0.6487 0.1881
vt 0.6534 0.6487 0.1881
vt 0.6534 0.6566 0.1881
vt 0.6821 0.6724 0.0940
vt 0.6821 0.6803 0.0940
vt 0.6651 0.6803 0.0940
vt 0.6651 0.6724 0.0940
vt 0.8669 0.5125 0.1881
vt 0.8669 0.5203 0.1881
vt 0.8432 0.5203 0.1881
vt 0.8432 0.5125 0.1881
vt 0.3062 0.8127 0.1624
vt 0.3062 0.7734 0.1624
vt 0.3233 0.7971 0.1624
vt 0.3233 0.8127 0.1624
vt 0.3675 0.7576 0.3249
vt 0.3675 0.7184 0.3249
vt 0.3912 0.7420 0.3249
vt 0.3912 0.7576 0.3249
vt 0.7870 0.7576 0.1624
vt 0.7870 0.7184 0.1624
vt 0.8041 0.7420 0.1624
vt 0.8041 0.7576 0.1624
vt 0.8582 0.5936 0.3249
vt 0.8582 0.6329 0.3249
vt 0.8346 0.6092 0.3249
vt 0.8346 0.5936 0.3249
vt 0.8661 0.5778 0.3249
vt 0.8661 0.5386 0.3249
vt 0.9882 0.5386 0.3249
vt 0.9882 0.5778 -0.3249
vt 0.7479 0.5542 0.3249
vt 0.7479 0.5386 0.3249
vt 0.8424 0.5386 0.3249
vt 0.8424 0.5542 0.3249
vt 0.5075 0.5778 -0.3249
vt 0.5075 0.5386 0.3249
vt 0.6304 0.4573 0.3249
vt 0.6304 0.4966 0.3249
vt 0.5083 0.4966 0.3249
vt 0.5083 0.4573 -0.3249
vt 0.7486 0.4810 0.3249
vt 0.7486 0.4966 0.3249
vt 0.6541 0.4966 0.3249
vt 0.6541 0.4810 0.3249
vt 0.9890 0.4573 -0.3249
vt 0.9890 0.4966 0.3249
vt 0.7457 0.8363 0.3381
vt 0.6315 0.8365 0.3381
vt 0.6315 0.8286 0.3381
vt 0.7535 0.8285 -0.3381
vt 0.5035 0.8365 0.3381
vt 0.5035 0.8286 0.3381
vt 0.5981 0.8286 0.3381
vt 0.5981 0.8365 0.3381
vt 0.2611 0.8363 0.3381
vt 0.2532 0.8285 -0.3381
vt 0.4966 0.7734 0.3381
vt 0.6110 0.7734 0.3381
vt 0.6110 0.7813 0.3381
vt 0.4888 0.7813 -0.3381
vt 0.7390 0.7734 0.3381
vt 0.7390 0.7813 0.3381
vt 0.6444 0.7813 0.3381
vt 0.6444 0.7734 0.3381
vt 0.9812 0.7734 0.3381
vt 0.9891 0.7813 -0.3381
vt 0.9803 0.6565 0.1881
vt 0.8662 0.6566 0.1881
vt 0.8662 0.6487 0.1881
vt 0.9882 0.6487 -0.1881
vt 0.7480 0.6566 0.1881
vt 0.7480 0.6487 0.1881
vt 0.8425 0.6487 0.1881
vt 0.8425 0.6566 0.1881
vt 0.5154 0.6565 0.1881
vt 0.5075 0.6487 -0.1881
vt 0.5162 0.5124 0.1881
vt 0.6305 0.5125 0.1881
vt 0.6304 0.5203 0.1881
vt 0.5083 0.5202 -0.1881
vt 0.7487 0.5125 0.1881
vt 0.7487 0.5204 0.1881
vt 0.6541 0.5204 0.1881
vt 0.6541 0.5125 0.1881
vt 0.9811 0.5124 0.1881
vt 0.9890 0.5202 -0.1881
vt 0.6039 0.7576 0.3249
vt 0.6039 0.7184 0.3249
vt 0.7182 0.7184 -0.3249
vt 0.7182 0.7576 0.3249
vt 0.4857 0.7576 0.3249
vt 0.4857 0.7420 0.3249
vt 0.5803 0.7420 0.3249
vt 0.5803 0.7576 0.3249
vt 0.2532 0.7576 0.3249
vt 0.2532 0.7184 -0.3249
vt 0.6218 0.5936 0.3249
vt 0.6218 0.6329 0.3249
vt 0.5075 0.6329 -0.3249
vt 0.5075 0.5936 0.3249
vt 0.7400 0.5936 0.3249
vt 0.7400 0.6092 0.3249
vt 0.6454 0.6092 0.3249
vt 0.6454 0.5936 0.3249
vt 0.9725 0.5936 0.3249
vt 0.9725 0.6329 -0.3249
vt 0.5836 0.1818 0.1624
vt 0.5836 0.2211 0.1624
vt 0.5228 0.2211 0.1624
vt 0.5228 0.1818 -0.1624
vt 0.6405 0.2055 0.1624
vt 0.6405 0.2211 0.1624
vt 0.6007 0.2211 0.1624
vt 0.6007 0.2055 0.1624
vt 0.7582 0.1818 -0.1624
vt 0.7582 0.2211 0.1624
vt 0.0628 0.8813 0.1624
vt 0.0628 0.9206 0.1624
vt 0.0020 0.9206 0.1624
vt 0.0020 0.8813 -0.1624
vt 0.1197 0.9050 0.1624
vt 0.1197 0.9206 0.1624
vt 0.0799 0.9206 0.1624
vt 0.0799 0.9050 0.1624
vt 0.2374 0.8813 -0.1624
vt 0.2374 0.9206 0.1624
vt 0.4966 0.7971 0.1791
vt 0.5496 0.7971 0.1791
vt 0.5496 0.8049 0.1791
vt 0.4888 0.8049 -0.1791
vt 0.6186 0.7971 0.1791
vt 0.6186 0.8049 0.1791
vt 0.5788 0.8049 0.1791
vt 0.5788 0.7971 0.1791
vt 0.7406 0.7971 0.1791
vt 0.7484 0.8049 -0.1791
vt 0.2611 0.8523 0.1791
vt 0.3141 0.8523 0.1791
vt 0.3141 0.8601 0.1791
vt 0.2532 0.8602 -0.1791
vt 0.3831 0.8523 0.1791
vt 0.3831 0.8601 0.1791
vt 0.3432 0.8601 0.1791
vt 0.3432 0.8523 0.1791
vt 0.5050 0.8523 0.1791
vt 0.5129 0.8602 -0.1791
vt 0.2296 0.9442 0.0940
vt 0.1766 0.9442 0.0940
vt 0.1766 0.9364 0.0940
vt 0.2374 0.9364 -0.0940
vt 0.1197 0.9442 0.0940
vt 0.1197 0.9364 0.0940
vt 0.1595 0.9364 0.0940
vt 0.1595 0.9442 0.0940
vt 0.0098 0.9442 0.0940
vt 0.0020 0.9364 -0.0940
vt 0.5154 0.6724 0.0940
vt 0.5683 0.6724 0.0940
vt 0.5683 0.6803 0.0940
vt 0.5075 0.6802 -0.0940
vt 0.6252 0.6725 0.0940
vt 0.6252 0.6803 0.0940
vt 0.5854 0.6803 0.0940
vt 0.5854 0.6724 0.0940
vt 0.7351 0.6724 0.0940
vt 0.7430 0.6802 -0.0940
vt 0.4200 0.8127 0.1624
vt 0.4200 0.7734 0.1624
vt 0.4730 0.7734 -0.1624
vt 0.4730 0.8127 0.1624
vt 0.3631 0.8127 0.1624
vt 0.3631 0.7971 0.1624
vt 0.4029 0.7971 0.1624
vt 0.4029 0.8127 0.1624
vt 0.2532 0.8127 0.1624
vt 0.2532 0.7734 -0.1624
vt 0.9008 0.7576 0.1624
vt 0.9008 0.7184 0.1624
vt 0.9538 0.7184 -0.1624
vt 0.9538 0.7576 0.1624
vt 0.8439 0.7576 0.1624
vt 0.8439 0.7420 0.1624
vt 0.8837 0.7420 0.1624
vt 0.8837 0.7576 0.1624
vt 0.7340 0.7576 0.1624
vt 0.7340 0.7184 -0.1624
# 298 texture coords

g Box001
usemtl wire_000000000
s 1
f 1/1/1 2/2/1 3/3/1 4/4/1 
f 5/5/2 6/6/3 7/7/4 8/8/5 
s 2
f 9/9/6 10/10/6 3/11/7 2/12/7 
s 4
f 11/13/8 9/14/8 2/15/9 1/16/9 
s 2
f 12/17/10 11/18/10 1/19/11 4/20/11 
s 4
f 10/21/12 12/22/12 4/23/13 3/24/13 
s 1
f 7/7/4 13/25/14 14/26/15 8/8/5 
f 8/8/5 14/27/15 15/28/16 5/5/2 
f 5/5/2 15/29/16 16/30/17 6/6/3 
f 6/6/3 16/31/17 13/32/14 7/7/4 
s 2
f 13/25/18 10/10/6 9/9/6 14/26/18 
s 4
f 14/27/19 9/14/8 11/13/8 15/28/19 
s 2
f 15/29/20 11/18/10 12/17/10 16/30/20 
s 4
f 16/31/21 12/22/12 10/21/12 13/32/21 
s 8
f 17/33/7 18/34/7 19/35/7 20/36/7 
s 16
f 21/37/9 17/38/9 20/39/9 22/40/9 
s 32
f 23/41/11 21/42/11 22/43/11 24/44/11 
s 64
f 18/45/13 23/46/13 24/47/13 19/48/13 
s off
f 25/49/13 26/50/13 27/51/13 28/52/13 
f 29/53/11 25/54/11 28/55/11 30/56/11 
f 31/57/9 29/58/9 30/59/9 32/60/9 
f 26/61/7 31/62/7 32/63/7 27/64/7 
f 28/52/22 27/51/22 19/48/22 24/47/22 
f 30/56/22 28/55/22 24/44/22 22/43/22 
f 32/60/22 30/59/22 22/65/22 20/66/22 
f 27/64/22 32/63/22 20/36/22 19/35/22 
f 26/50/1 25/49/1 33/67/1 34/68/1 
f 31/62/1 26/61/1 34/69/1 35/70/1 
f 29/58/1 31/57/1 35/71/1 36/72/1 
f 25/54/1 29/53/1 36/73/1 33/74/1 
f 37/75/13 38/76/13 39/77/13 40/78/13 
f 41/79/11 42/80/11 43/81/11 44/82/11 
f 45/83/9 46/84/9 47/85/9 48/86/9 
f 49/87/7 50/88/7 51/89/7 52/90/7 
f 53/91/23 37/92/23 40/93/23 54/94/23 
f 55/95/24 41/96/24 44/97/24 56/98/24 
f 57/99/25 45/100/25 48/101/25 58/102/25 
f 59/103/26 49/104/26 52/105/26 60/106/26 
f 61/107/22 62/108/22 63/109/22 64/110/22 
f 65/111/22 66/112/22 67/113/22 68/114/22 
f 69/115/22 70/116/22 71/117/22 72/118/22 
f 73/119/22 74/120/22 75/121/22 76/122/22 
s 1
f 77/123/9 53/124/9 54/125/9 78/126/9 
s 2
f 79/127/7 55/128/7 56/129/7 80/130/7 
s 1
f 81/131/13 57/132/13 58/133/13 82/134/13 
s 2
f 83/135/11 59/136/11 60/137/11 84/138/11 
s off
f 85/139/11 74/140/11 36/141/11 86/142/11 
f 87/143/11 88/144/11 75/145/11 89/146/11 
f 42/80/11 41/79/11 90/147/11 33/148/11 
f 91/149/7 66/150/7 34/151/7 92/152/7 
f 93/153/7 94/154/7 67/155/7 95/156/7 
f 50/88/7 49/87/7 96/157/7 35/158/7 
f 97/159/1 98/160/1 85/161/1 86/162/1 
f 99/163/1 87/164/1 89/165/1 100/166/1 
f 41/96/1 55/95/1 101/167/1 90/168/1 
f 102/169/1 103/170/1 91/171/1 92/172/1 
f 104/173/1 93/174/1 95/175/1 105/176/1 
f 49/104/1 59/103/1 106/177/1 96/178/1 
f 107/179/22 83/180/22 50/181/22 35/182/22 
f 108/183/22 94/184/22 51/185/22 84/186/22 
f 66/112/22 65/111/22 109/187/22 34/188/22 
f 110/189/22 79/190/22 42/191/22 33/192/22 
f 111/193/22 88/194/22 43/195/22 80/196/22 
f 74/120/22 73/119/22 112/197/22 36/198/22 
s 2
f 73/199/7 98/200/7 97/201/7 112/202/7 
f 111/203/7 99/204/7 100/205/7 76/206/7 
f 55/128/7 79/127/7 110/207/7 101/208/7 
f 65/209/11 103/210/11 102/211/11 109/212/11 
f 108/213/11 104/214/11 105/215/11 68/216/11 
f 59/136/11 83/135/11 107/217/11 106/218/11 
s off
f 76/122/22 75/121/22 88/194/22 111/193/22 
f 89/146/11 75/145/11 74/140/11 85/139/11 
f 100/166/26 89/165/26 85/161/26 98/160/26 
s 2
f 76/206/7 100/205/7 98/200/7 73/199/7 
s off
f 52/90/7 51/89/7 94/154/7 93/153/7 
f 60/106/1 52/105/1 93/174/1 104/173/1 
s 2
f 84/138/11 60/137/11 104/214/11 108/213/11 
s off
f 84/186/22 51/185/22 50/181/22 83/180/22 
f 44/82/11 43/81/11 88/144/11 87/143/11 
f 56/98/1 44/97/1 87/164/1 99/163/1 
s 2
f 80/130/7 56/129/7 99/204/7 111/203/7 
s off
f 80/196/22 43/195/22 42/191/22 79/190/22 
f 68/114/22 67/113/22 94/184/22 108/183/22 
f 95/156/7 67/155/7 66/150/7 91/149/7 
f 105/176/24 95/175/24 91/171/24 103/170/24 
s 2
f 68/216/11 105/215/11 103/210/11 65/209/11 
s off
f 113/219/13 62/220/13 33/221/13 90/222/13 
f 114/223/13 115/224/13 63/225/13 116/226/13 
f 38/76/13 37/75/13 92/227/13 34/228/13 
f 117/229/9 70/230/9 35/231/9 96/232/9 
f 118/233/9 119/234/9 71/235/9 120/236/9 
f 46/84/9 45/83/9 86/237/9 36/238/9 
f 101/239/1 121/240/1 113/241/1 90/242/1 
f 122/243/1 114/244/1 116/245/1 123/246/1 
f 37/92/1 53/91/1 102/247/1 92/248/1 
f 106/249/1 124/250/1 117/251/1 96/252/1 
f 125/253/1 118/254/1 120/255/1 126/256/1 
f 45/100/1 57/99/1 97/257/1 86/258/1 
f 109/259/22 77/260/22 38/261/22 34/262/22 
f 127/263/22 115/264/22 39/265/22 78/266/22 
f 62/108/22 61/107/22 110/267/22 33/268/22 
f 112/269/22 81/270/22 46/271/22 36/272/22 
f 128/273/22 119/274/22 47/275/22 82/276/22 
f 70/116/22 69/115/22 107/277/22 35/278/22 
s 1
f 61/279/9 121/280/9 101/281/9 110/282/9 
f 127/283/9 122/284/9 123/285/9 64/286/9 
f 53/124/9 77/123/9 109/287/9 102/288/9 
f 69/289/13 124/290/13 106/291/13 107/292/13 
f 128/293/13 125/294/13 126/295/13 72/296/13 
f 57/132/13 81/131/13 112/297/13 97/298/13 
s off
f 48/86/9 47/85/9 119/234/9 118/233/9 
f 58/102/1 48/101/1 118/254/1 125/253/1 
s 1
f 82/134/13 58/133/13 125/294/13 128/293/13 
s off
f 82/276/22 47/275/22 46/271/22 81/270/22 
f 72/118/22 71/117/22 119/274/22 128/273/22 
f 120/236/9 71/235/9 70/230/9 117/229/9 
f 126/256/23 120/255/23 117/251/23 124/250/23 
s 1
f 72/296/13 126/295/13 124/290/13 69/289/13 
s off
f 40/78/13 39/77/13 115/224/13 114/223/13 
f 54/94/1 40/93/1 114/244/1 122/243/1 
s 1
f 78/126/9 54/125/9 122/284/9 127/283/9 
s off
f 78/266/22 39/265/22 38/261/22 77/260/22 
f 64/110/22 63/109/22 115/264/22 127/263/22 
f 116/226/13 63/225/13 62/220/13 113/219/13 
f 123/246/25 116/245/25 113/241/25 121/240/25 
s 1
f 64/286/9 123/285/9 121/280/9 61/279/9 
# 126 polygons

